<svg width="23" height="23" viewBox="0 0 23 23" fill="none" xmlns="http://www.w3.org/2000/svg">
<g clip-path="url(#clip0_362_5483)">
<path d="M13.4212 20.3666C18.2332 19.2257 21.1676 14.2248 19.9755 9.19672C18.7833 4.16869 13.916 1.0176 9.10397 2.15855C4.29199 3.2995 1.35757 8.30045 2.54974 13.3285C3.74192 18.3565 8.60926 21.5076 13.4212 20.3666Z" fill="#E88102"/>
<path d="M13.1935 19.4064C17.9564 18.277 20.902 13.5005 19.7727 8.73761C18.6434 3.97473 13.8668 1.02914 9.10393 2.15845C4.34106 3.28776 1.39547 8.06432 2.52478 12.8272C3.65409 17.5901 8.43065 20.5357 13.1935 19.4064Z" fill="#FDD835"/>
<path opacity="0.5" d="M12.7155 2.05691L4.05456 16.0965C3.46746 15.3155 3.00489 14.426 2.69851 13.4506L9.73804 2.03042C10.7479 1.86985 11.7504 1.88382 12.7155 2.05691Z" fill="white"/>
<path opacity="0.5" d="M17.6595 4.7687L8.69829 19.3002C7.86788 19.0614 7.08415 18.7026 6.36198 18.239L15.6659 3.15671C16.3999 3.59117 17.0733 4.13392 17.6595 4.7687Z" fill="white"/>
<path opacity="0.5" d="M15.2374 2.9165L5.95876 17.9627C5.718 17.7869 5.48182 17.5988 5.25818 17.4001L14.4202 2.54309C14.6981 2.65374 14.9722 2.7803 15.2374 2.9165Z" fill="white"/>
<path opacity="0.5" d="M18.9921 6.64993L10.9777 19.646C10.6418 19.6393 10.3088 19.613 9.97957 19.5709L18.4769 5.79173C18.6623 6.06703 18.8353 6.35281 18.9921 6.64993Z" fill="white"/>
<path opacity="0.5" d="M19.7727 8.73761C19.787 8.79806 19.8005 8.85496 19.8113 8.91626C18.6092 4.25814 13.8932 1.3985 9.18826 2.51408C4.48331 3.62965 1.55329 8.3022 2.57049 13.0042C2.55616 12.9437 2.53911 12.8877 2.52478 12.8272C1.39571 8.06536 4.34209 3.28752 9.10393 2.15845C13.8658 1.02939 18.6436 3.97576 19.7727 8.73761Z" fill="white"/>
<path opacity="0.5" d="M18.2431 9.49468C19.1276 13.2252 16.8188 16.9692 13.0883 17.8537C10.9936 18.3504 8.89265 17.8381 7.29651 16.6352C8.84675 17.6762 10.8088 18.0937 12.7719 17.6282C16.5024 16.7437 18.8112 12.9997 17.9267 9.2692C17.5388 7.63332 16.6041 6.27357 15.3594 5.33291C16.7584 6.27456 17.8231 7.72365 18.2431 9.49468Z" fill="white"/>
<path d="M12.7719 17.6282C16.5037 16.7434 18.8115 13.0009 17.9267 9.26919C17.0419 5.53745 13.2994 3.22956 9.5677 4.11438C5.83596 4.9992 3.52808 8.74166 4.4129 12.4734C5.29772 16.2051 9.04018 18.513 12.7719 17.6282Z" fill="#F39E09"/>
<path d="M15.2453 5.24729C13.819 4.50743 12.1333 4.25731 10.4476 4.65699C6.71707 5.54153 4.40826 9.28549 5.2928 13.016C5.69248 14.7017 6.67283 16.0957 7.97427 17.0379C6.24325 16.1374 4.89859 14.5218 4.4129 12.4734C3.52837 8.74288 5.83718 4.99892 9.5677 4.11438C11.6126 3.62953 13.6635 4.10484 15.2453 5.24729Z" fill="#E88102"/>
<path d="M11.6422 8.93389C11.8711 9.0599 12.0236 9.27541 12.097 9.5848L13.9214 9.15223L13.7949 8.61879C13.7949 8.61879 13.4572 8.17675 13.2704 8.00693C12.947 7.70424 12.5434 7.50696 12.0667 7.41339C11.8031 7.3632 11.5321 7.34483 11.2473 7.36352L11.0188 6.39978L10.3787 6.55155L10.5937 7.4584C10.5723 7.46346 10.3981 7.50478 10.3349 7.52351L10.119 6.61311L9.47892 6.76489L9.7108 7.74286C9.48265 7.84203 9.27463 7.96272 9.0842 8.09427C8.67827 8.37833 8.39318 8.71261 8.22369 9.09086C8.11799 9.32627 7.99484 9.75738 7.99484 9.75738L8.12132 10.2908C8.32116 11.1337 8.96961 11.6823 10.0694 11.9324C10.2639 11.9764 10.4877 12.0173 10.7363 12.0522L11.1773 13.9121C11.1093 13.8945 11.0467 13.868 10.9903 13.8363C10.735 13.694 10.5574 13.4206 10.4605 13.0116L8.49896 12.9133L8.62544 13.4467C8.74434 13.9481 8.97337 14.3596 9.31693 14.6838C9.66049 15.008 10.1056 15.2218 10.6557 15.3242C10.9352 15.3781 11.2249 15.3958 11.522 15.3817L11.7556 16.3668L12.3957 16.215L12.1799 15.3046C12.2554 15.2905 12.3301 15.2728 12.4048 15.2551L12.4403 15.2466L12.6553 16.1535L13.2955 16.0017L13.0712 15.0557C13.6118 14.8487 14.0292 14.5656 14.327 14.2058C14.7391 13.7099 14.8641 13.1281 14.7064 12.4631L14.5799 11.9297C14.5799 11.9297 13.7691 11.0289 13.013 10.8025C12.7303 10.7193 12.3952 10.6522 12.0127 10.6077L11.6139 8.92557C11.6254 8.9266 11.6334 8.92847 11.6422 8.93389ZM10.3144 10.3042C10.1055 10.1997 9.97784 10.0572 9.93568 9.87941C9.88508 9.66603 9.92827 9.46798 10.0732 9.28713L10.3144 10.3042ZM12.1148 13.8739C12.1006 13.8773 12.0899 13.8798 12.0793 13.8823C12.001 13.9009 11.9255 13.915 11.8535 13.9284L11.4269 12.1289C11.5269 12.139 11.6199 12.1507 11.7092 12.1633L12.1148 13.8739ZM11.3239 10.5381C11.2238 10.528 11.1309 10.5163 11.0407 10.5001L10.6621 8.90335C10.711 8.88799 10.7635 8.87178 10.8169 8.85913C10.8524 8.8507 10.888 8.84227 10.9208 8.83824L11.3239 10.5381ZM12.4481 12.3488C12.672 12.4534 12.8178 12.6405 12.881 12.9072C12.9367 13.1419 12.8916 13.3479 12.7485 13.5208C12.7369 13.5349 12.7279 13.5445 12.7153 13.555L12.427 12.3387C12.4314 12.3415 12.4393 12.3433 12.4481 12.3488Z" fill="#DB6704"/>
<path d="M12.8857 10.2654C12.603 10.1821 12.2679 10.1151 11.8854 10.0706L11.4866 8.38844C11.4954 8.39387 11.5078 8.39845 11.5157 8.40032C11.7447 8.52633 11.8972 8.74184 11.9705 9.05123L13.7949 8.61866C13.6853 8.15635 13.4674 7.77605 13.144 7.47336C12.8205 7.17067 12.4169 6.97339 11.9402 6.87982C11.6767 6.82963 11.4056 6.81126 11.1208 6.82996L10.8923 5.86621L10.2522 6.01799L10.4672 6.92483C10.4459 6.92989 10.4245 6.93495 10.4032 6.94001C10.3356 6.95603 10.2716 6.97121 10.2084 6.98995L9.99258 6.07954L9.35245 6.23132L9.58434 7.20929C9.35619 7.30846 9.14816 7.42915 8.95774 7.5607C8.55181 7.84476 8.26672 8.17904 8.09722 8.55729C7.92773 8.93554 7.89535 9.33761 7.99485 9.75725C8.1947 10.6001 8.84314 11.1487 9.94291 11.3988C10.1374 11.4429 10.3612 11.4837 10.6099 11.5186L11.0509 13.3786C10.9828 13.3609 10.9202 13.3344 10.8639 13.3027C10.6085 13.1604 10.431 12.887 10.334 12.478L8.49898 12.9131C8.61787 13.4146 8.8469 13.826 9.19046 14.1502C9.53403 14.4744 9.97911 14.6882 10.5293 14.7906C10.8087 14.8446 11.0984 14.8623 11.3956 14.8482L11.6291 15.8332L12.2693 15.6815L12.0534 14.7711C12.1289 14.7569 12.2036 14.7392 12.2783 14.7215L12.3139 14.7131L12.5289 15.6199L13.169 15.4681L12.9447 14.5222C13.4853 14.3151 13.9028 14.0321 14.2006 13.6722C14.6126 13.1764 14.7376 12.5946 14.5799 11.9296C14.3826 11.0974 13.8193 10.5436 12.8857 10.2654ZM10.6868 8.32641C10.7224 8.31797 10.758 8.30954 10.7908 8.30551L11.193 10.0019C11.093 9.99177 10.9965 9.98084 10.9098 9.96383L10.5312 8.36706C10.581 8.35526 10.6343 8.34261 10.6868 8.32641ZM9.81277 9.345C9.76217 9.13162 9.80536 8.93357 9.95029 8.75271L10.1923 9.77336C9.97907 9.66616 9.85493 9.52281 9.81277 9.345ZM11.9492 13.3496C11.871 13.3682 11.7955 13.3823 11.7235 13.3956L11.2969 11.5962C11.3969 11.6062 11.4898 11.618 11.5792 11.6306L11.9848 13.3412C11.9741 13.3437 11.9635 13.3462 11.9492 13.3496ZM12.6212 12.9837C12.6095 12.9977 12.6006 13.0074 12.588 13.0179L12.3005 11.8052C12.3084 11.807 12.3172 11.8125 12.3216 11.8152C12.5455 11.9199 12.6913 12.1069 12.7545 12.3736C12.8102 12.6083 12.7643 12.8108 12.6212 12.9837Z" fill="#FDD835"/>
<path opacity="0.5" d="M8.95505 7.56516C9.12939 7.44494 9.3142 7.33727 9.51662 7.24044L7.98374 9.72615C7.89473 9.31905 7.92963 8.92764 8.0937 8.55819C8.26319 8.17995 8.54913 7.84922 8.95505 7.56516Z" fill="white"/>
<path opacity="0.5" d="M9.34888 6.23212L9.98901 6.08034L10.0565 6.36484L9.56811 7.15675L9.34888 6.23212Z" fill="white"/>
<path opacity="0.5" d="M10.2734 6.01293L10.2581 6.04263L10.2522 6.01795L10.2734 6.01293Z" fill="white"/>
<path opacity="0.5" d="M13.9294 10.8181C13.6584 10.5781 13.3105 10.3939 12.8856 10.2655C12.6021 10.1787 12.2678 10.1153 11.8854 10.0707L11.7505 9.50172L10.5133 11.5079C10.5407 11.5127 10.5717 11.5166 10.6027 11.5205L11.0437 13.3804C10.9756 13.3628 10.913 13.3363 10.8567 13.3046C10.6013 13.1623 10.4238 12.8889 10.3268 12.4799L9.84317 12.5946L9.00213 13.9584C9.0598 14.0274 9.12018 14.0919 9.18327 14.1521C9.52684 14.4763 9.97192 14.69 10.5221 14.7925C10.8007 14.8429 11.0912 14.8641 11.3884 14.85L11.4019 14.9069L12.5766 13.0019L12.2933 11.807C12.3013 11.8089 12.3101 11.8143 12.3145 11.817C12.5383 11.9217 12.6841 12.1088 12.7474 12.3755C12.7769 12.5 12.7781 12.6161 12.7503 12.7204L13.9294 10.8181ZM11.9883 13.3405C11.9741 13.3439 11.9634 13.3464 11.9527 13.3489C11.8745 13.3675 11.799 13.3816 11.727 13.3949L11.3003 11.5955C11.4004 11.6056 11.4933 11.6173 11.5827 11.6299L11.9883 13.3405Z" fill="white"/>
<path opacity="0.5" d="M13.7949 8.61893L12.0382 9.03547L13.0501 7.39447C13.0826 7.42057 13.1115 7.44752 13.1405 7.47446C13.4674 7.77631 13.6853 8.15661 13.7949 8.61893Z" fill="white"/>
<path opacity="0.5" d="M8.49536 12.914L9.17105 12.7538L8.70628 13.5025C8.61891 13.3242 8.54595 13.1274 8.49536 12.914Z" fill="white"/>
<path opacity="0.5" d="M10.6139 8.71559L10.9048 9.94251L9.99591 11.4163C9.97644 11.4134 9.95613 11.407 9.93582 11.4005C9.6335 11.3295 9.36422 11.2393 9.12712 11.1265L10.0251 9.67028C10.0717 9.70808 10.1245 9.74064 10.1879 9.77066L10.1255 9.5075L10.6139 8.71559Z" fill="white"/>
<path opacity="0.5" d="M12.6435 7.12247L11.7428 8.58309C11.6799 8.50786 11.6026 8.45107 11.5163 8.40392C11.5075 8.3985 11.4951 8.39391 11.4872 8.39204L11.5917 8.83302L11.1034 9.62493L10.8125 8.39802L11.762 6.8582C11.8204 6.86689 11.8788 6.87557 11.9381 6.88782C12.1964 6.93174 12.4295 7.01171 12.6435 7.12247Z" fill="white"/>
<path opacity="0.5" d="M12.497 15.4848L12.9853 14.6929L13.1692 15.4682L12.529 15.6199L12.497 15.4848Z" fill="white"/>
<path opacity="0.5" d="M14.6076 12.0619C14.7181 12.6705 14.5822 13.2061 14.1998 13.6686C13.9398 13.9819 13.5874 14.2383 13.1426 14.4377L14.6076 12.0619Z" fill="white"/>
<path opacity="0.25" d="M15.9222 5.80433C11.9123 8.37779 9.19887 12.5858 8.49371 17.2792C8.31821 17.2044 8.14542 17.1251 7.97365 17.0344C6.67221 16.0922 5.69187 14.6982 5.29303 13.0161C4.40849 9.28554 6.7173 5.54158 10.4478 4.65705C12.1335 4.25736 13.8192 4.50749 15.2419 5.24819C15.4818 5.42043 15.7065 5.60756 15.9222 5.80433Z" fill="white"/>
</g>
<defs>
<clipPath id="clip0_362_5483">
<rect width="18.7129" height="18.7129" fill="white" transform="translate(0 4.31726) rotate(-13.3389)"/>
</clipPath>
</defs>
</svg>
