<svg width="52" height="52" viewBox="0 0 52 52" fill="none" xmlns="http://www.w3.org/2000/svg">
<path d="M26 52C40.3594 52 52 40.3594 52 26C52 11.6406 40.3594 0 26 0C11.6406 0 0 11.6406 0 26C0 40.3594 11.6406 52 26 52Z" fill="#8FD14F"/>
<path d="M7.18945 40.4758L17.177 50.4634C19.9319 51.4571 22.9025 52 26 52C40.3595 52 52 40.3594 52 26C52 25.2943 51.9709 24.5956 51.9157 23.9041L35.714 7.70239L7.18945 40.4758Z" fill="#3F7C25"/>
<path d="M40.2629 21.3687C39.3053 11.1667 36.4324 4.08582 26.001 4.08582C15.5696 4.08582 12.6967 11.1667 11.7391 21.3687C10.7815 31.5708 7.19043 40.4758 7.19043 40.4758L16.1682 38.0817L16.8516 45.2639L26.001 39.997L35.1505 45.2639L35.8338 38.0817L44.8116 40.4758C44.8116 40.4758 41.2206 31.5708 40.2629 21.3687Z" fill="white"/>
<path d="M40.2629 21.3688C39.3053 11.1668 36.4324 4.08594 26.001 4.08594V39.9971L35.1504 45.264L35.8337 38.0818L44.8116 40.4759C44.8116 40.4759 41.2205 31.5708 40.2629 21.3688Z" fill="#E0E0E0"/>
<path d="M33.5508 26.1435C33.5508 28.27 30.1709 29.1359 26.0015 29.1359C21.832 29.1359 18.4521 28.2699 18.4521 26.1435C18.4521 25.8987 18.4984 25.6552 18.5858 25.4176C18.8696 24.6473 19.5552 24.0955 20.359 23.9279C21.5961 23.6699 24.0483 23.2166 26.0015 23.2166C27.9584 23.2166 30.4115 23.6705 31.647 23.9284C32.4059 24.0867 33.062 24.5874 33.3688 25.2994C33.4874 25.5744 33.5508 25.8585 33.5508 26.1435Z" fill="#F4BF3B"/>
<path d="M33.3683 25.2994C33.0615 24.5874 32.4054 24.0867 31.6465 23.9284C30.411 23.6705 27.9579 23.2166 26.001 23.2166V29.1359C30.1703 29.1359 33.5503 28.2699 33.5503 26.1435C33.5502 25.8584 33.4867 25.5743 33.3683 25.2994Z" fill="#E38523"/>
<path d="M22.0988 22.4169L22.0987 22.4171C21.6315 23.1635 21.5558 24.0902 21.8958 24.9025L26.0014 33.0821L30.1071 24.9022C30.447 24.0899 30.3713 23.1632 29.9041 22.4168C28.1003 19.535 23.9025 19.535 22.0988 22.4169Z" fill="#FFEC66"/>
<path d="M29.9037 22.4168C29.0017 20.976 27.5014 20.2555 26.001 20.2555V33.0821L30.1066 24.9023C30.4466 24.09 30.3709 23.1632 29.9037 22.4168Z" fill="#F4BF3B"/>
<path d="M17.4463 15.4148C17.9137 16.9325 19.5229 17.7841 21.0408 17.3167C21.8395 17.0708 22.4532 16.5085 22.7879 15.8098L18.0072 12.7026C17.391 13.4263 17.146 14.4392 17.4463 15.4148Z" fill="#494949"/>
<path d="M34.5545 15.4147C34.0871 16.9325 32.4778 17.7841 30.96 17.3167C30.1613 17.0708 29.5475 16.5085 29.2129 15.8098L33.9935 12.7025C34.6097 13.4262 34.8549 14.4391 34.5545 15.4147Z" fill="#2D2D2D"/>
</svg>
