<svg width="40" height="41" viewBox="0 0 40 41" fill="none" xmlns="http://www.w3.org/2000/svg">
<path d="M19.9429 40.5708C30.957 40.5708 39.8857 31.4887 39.8857 20.2854C39.8857 9.08209 30.957 0 19.9429 0C8.92872 0 0 9.08209 0 20.2854C0 31.4887 8.92872 40.5708 19.9429 40.5708Z" fill="#A4FF80"/>
<path d="M4.76562 24.1312L20.9043 40.5471C31.4714 40.0362 39.8848 31.1606 39.8848 20.2856C39.8848 17.9129 39.4829 15.636 38.747 13.5197L32.2339 6.89465L24.9829 20.7405L15.1438 10.7324C15.1438 10.7324 6.47105 21.7771 4.76562 24.1312Z" fill="#3F7C25"/>
<path d="M31.6784 18.1611C35.6818 14.6201 32.2338 6.89465 32.2338 6.89465C25.982 7.74252 23.6798 12.2293 23.1683 13.4366C22.1591 13.2459 21.0841 13.1417 19.9418 13.1417C18.8504 13.1417 17.8211 13.2377 16.8513 13.4125C16.3195 12.1703 14.0063 7.73689 7.79608 6.89465C7.79608 6.89465 4.39575 14.5153 8.27245 18.0879C6.41816 20.0732 5.26599 22.3161 4.76562 24.1311C4.76562 24.1311 14.6067 26.7865 16.7928 32.8643H23.091C25.2771 26.7864 35.1182 24.1311 35.1182 24.1311C34.6238 22.3383 33.4931 20.1282 31.6784 18.1611Z" fill="#E9A761"/>
<path d="M31.6791 18.1611C35.6824 14.6201 32.2344 6.89465 32.2344 6.89465C25.9827 7.74252 23.6804 12.2293 23.1689 13.4366C22.1598 13.2459 21.0847 13.1417 19.9424 13.1417V32.8644H23.0915C25.2776 26.7865 35.1187 24.1312 35.1187 24.1312C34.6245 22.3383 33.4937 20.1282 31.6791 18.1611Z" fill="#E38523"/>
<path d="M14.2976 14.0691C12.53 14.6975 11.0109 15.6024 9.73176 16.6515C8.04207 14.6483 9.6897 10.7323 9.6897 10.7323C12.7224 11.1436 13.926 13.2165 14.2976 14.0691Z" fill="white"/>
<path d="M30.0921 16.722C28.8262 15.6682 27.3211 14.7553 25.5684 14.1151C25.9158 13.2941 27.1061 11.1515 30.1957 10.7323C30.1957 10.7323 31.8831 14.7418 30.0921 16.722Z" fill="#E0E0E0"/>
<path d="M4.76562 24.1308C4.76562 24.1308 8.84534 21.0388 13.1883 23.6408C16.4928 25.6207 16.8878 30.1721 16.7928 32.8641C16.7928 32.8641 11.5213 26.2614 4.76562 24.1308Z" fill="white"/>
<path d="M35.1077 24.1308C35.1077 24.1308 31.028 21.0388 26.685 23.6408C23.3805 25.6207 22.9855 30.1721 23.0805 32.8641C23.0805 32.8641 28.3521 26.2614 35.1077 24.1308Z" fill="#E0E0E0"/>
<path d="M16.32 20.6409C17.1842 20.2765 17.5944 19.2685 17.2362 18.3895C16.878 17.5104 15.887 17.0932 15.0228 17.4576C14.1586 17.8219 13.7484 18.8299 14.1066 19.709C14.4648 20.588 15.4558 21.0053 16.32 20.6409Z" fill="#494949"/>
<path d="M25.0251 20.6382C25.8893 20.2739 26.2995 19.2659 25.9413 18.3868C25.5831 17.5077 24.5921 17.0905 23.7279 17.4549C22.8637 17.8192 22.4535 18.8272 22.8117 19.7063C23.1699 20.5854 24.1609 21.0026 25.0251 20.6382Z" fill="#2D2D2D"/>
<path d="M19.9419 30.2466C18.584 30.2466 15.2308 30.9277 16.9902 33.712C18.3203 35.8172 19.9419 35.9061 19.9419 35.9061C19.9419 35.9061 21.5634 35.8172 22.8936 33.712C24.6529 30.9277 21.2997 30.2466 19.9419 30.2466Z" fill="#494949"/>
<path d="M19.9424 30.2466V35.9061C19.9424 35.9061 21.5639 35.8172 22.8941 33.712C24.6534 30.9277 21.3002 30.2466 19.9424 30.2466Z" fill="#2D2D2D"/>
</svg>
