<svg width="39" height="39" viewBox="0 0 39 39" fill="none" xmlns="http://www.w3.org/2000/svg">
<g clip-path="url(#clip0_150_5442)">
<path d="M19.0424 38.0848C29.5593 38.0848 38.0848 29.5593 38.0848 19.0424C38.0848 8.52558 29.5593 0 19.0424 0C8.52558 0 0 8.52558 0 19.0424C0 29.5593 8.52558 38.0848 19.0424 38.0848Z" fill="#8FD14F"/>
<path d="M38.0839 19.0422C38.0839 18.6113 38.0682 18.1842 38.04 17.7604C33.9387 13.659 29.233 8.95323 29.2188 8.93939C28.4963 8.1977 22.7815 10.0052 22.7815 10.0052L15.5248 9.90237L14.5524 8.93024L8.93414 14.559L9.65024 15.2761L9.93149 27.274L20.6719 38.0145C30.4253 37.1873 38.0839 29.0097 38.0839 19.0422Z" fill="#3F7C25"/>
<path d="M10.8618 15.6143L10.4905 15.4952C8.84263 14.9641 7.73572 13.4437 7.73572 11.7112C7.73572 9.5192 9.51871 7.73621 11.7107 7.73621C13.5383 7.73621 15.124 8.97322 15.5672 10.7445L15.6623 11.123L10.8618 15.6143Z" fill="#3C3A41"/>
<path d="M10.5473 14.0936C9.64549 13.6556 9.06061 12.7389 9.06061 11.7109C9.06061 10.2494 10.249 9.06091 11.7106 9.06091C12.802 9.06091 13.764 9.72279 14.1651 10.7088L10.5473 14.0936Z" fill="#57555C"/>
<path d="M27.2227 15.6143L22.4222 11.1231L22.5173 10.7446C22.9604 8.97322 24.5462 7.73621 26.3739 7.73621C28.5657 7.73621 30.3487 9.5192 30.3487 11.7112C30.3487 13.4437 29.2418 14.9641 27.594 15.4952L27.2227 15.6143Z" fill="#2B292C"/>
<path d="M23.9186 10.7088C24.3203 9.72212 25.2817 9.06091 26.3731 9.06091C27.8346 9.06091 29.0231 10.2494 29.0231 11.7109C29.0231 12.7389 28.4388 13.655 27.5363 14.0936L23.9186 10.7088Z" fill="#3C3A41"/>
<path d="M19.0422 9.10547C13.464 9.10547 7.73572 15.452 7.73572 21.6927C7.73572 28.0393 13.5965 30.3492 19.0422 30.3492C24.4878 30.3492 30.3486 28.0393 30.3486 21.6927C30.3486 15.4521 24.6203 9.10547 19.0422 9.10547Z" fill="#E5E5E5"/>
<path d="M30.3487 21.6927C30.3487 28.0393 24.4879 30.3492 19.0423 30.3492V9.10547C24.6205 9.10547 30.3487 15.4521 30.3487 21.6927Z" fill="#C8C6CD"/>
<path d="M13.8057 22.5354C13.6065 22.5354 13.4085 22.5212 13.2138 22.4915C12.2187 22.3394 11.4191 21.8206 10.9624 21.03C10.0495 19.4482 10.8504 17.2698 12.7487 16.1738C13.6447 15.6563 14.6553 15.4486 15.596 15.5935C16.591 15.7455 17.3906 16.2644 17.8473 17.055C18.7602 18.6368 17.9593 20.8151 16.0611 21.9111C15.3507 22.3213 14.5679 22.5354 13.8057 22.5354Z" fill="#57555C"/>
<path d="M24.2794 22.5354C23.5172 22.5354 22.7344 22.3213 22.024 21.9111C20.1259 20.8151 19.3249 18.6369 20.2378 17.055C20.6945 16.2645 21.4942 15.7455 22.4892 15.5935C23.4272 15.4486 24.4398 15.6563 25.3365 16.1738C27.2346 17.2698 28.0356 19.4481 27.1227 21.03C26.666 21.8205 25.8663 22.3394 24.8713 22.4915C24.6766 22.5212 24.4786 22.5354 24.2794 22.5354Z" fill="#3C3A41"/>
<path d="M22.3543 26.3295V27.6545C20.9895 27.6545 19.7573 26.9522 19.0418 25.8525C18.3264 26.9522 17.0942 27.6545 15.7294 27.6545V26.3295C16.9882 26.3295 18.0879 25.4285 18.3264 24.1963L19.0418 24.342L19.7573 24.1963C19.9958 25.4285 21.0955 26.3295 22.3543 26.3295Z" fill="#8B8892"/>
<path d="M22.3547 26.3295V27.6545C20.99 27.6545 19.7577 26.9522 19.0423 25.8525V24.342L19.7577 24.1963C19.9962 25.4285 21.096 26.3295 22.3547 26.3295Z" fill="#787780"/>
<path d="M15.7296 18.3795H14.4045V19.7045H15.7296V18.3795Z" fill="#3C3A41"/>
<path d="M23.6794 18.3795H22.3544V19.7045H23.6794V18.3795Z" fill="#2B292C"/>
<path d="M19.0417 21.0298C17.942 21.0298 17.0543 21.9175 17.0543 23.0173C17.0543 24.117 17.942 25.0047 19.0417 25.0047C20.1415 25.0047 21.0292 24.117 21.0292 23.0173C21.0292 21.9175 20.1415 21.0298 19.0417 21.0298Z" fill="#3C3A41"/>
<path d="M21.0298 23.0173C21.0298 24.117 20.1421 25.0047 19.0423 25.0047V21.0298C20.1421 21.0298 21.0298 21.9175 21.0298 23.0173Z" fill="#2B292C"/>
</g>
<defs>
<clipPath id="clip0_150_5442">
<rect width="38.0848" height="38.0848" fill="white"/>
</clipPath>
</defs>
</svg>
