<svg width="39" height="39" viewBox="0 0 39 39" fill="none" xmlns="http://www.w3.org/2000/svg">
<g clip-path="url(#clip0_150_5462)">
<path d="M19.0424 0C8.52557 0 0 8.52557 0 19.0424C0 22.8699 1.1302 26.433 3.07364 29.4181H35.0111C36.9546 26.433 38.0848 22.8699 38.0848 19.0424C38.0848 8.52557 29.5593 0 19.0424 0Z" fill="#8FD14F"/>
<path d="M37.9431 16.7119L30.6367 9.40552L21.1628 29.4185H35.0107C36.9541 26.4335 38.0843 22.8704 38.0843 19.0428C38.0843 18.2538 38.0363 17.4759 37.9431 16.7119Z" fill="#3F7C25"/>
<path d="M19.0423 38.0853C25.7748 38.0853 31.6914 34.5913 35.0776 29.3177C32.4971 22.5247 26.2897 17.7378 19.0423 17.7378C11.7949 17.7378 5.58748 22.5247 3.00708 29.3177C6.39321 34.5913 12.3097 38.0853 19.0423 38.0853Z" fill="#A65D4E"/>
<path d="M35.0768 29.3176C32.4974 22.5274 26.2941 17.7417 19.0505 17.7378V38.0851C25.7794 38.0819 31.6921 34.5888 35.0768 29.3176Z" fill="#784132"/>
<path d="M19.0421 27.9367C27.233 27.9367 33.8731 22.8264 33.8731 16.5225C33.8731 10.2187 27.233 5.1084 19.0421 5.1084C10.8511 5.1084 4.211 10.2187 4.211 16.5225C4.211 22.8264 10.8511 27.9367 19.0421 27.9367Z" fill="#C38778"/>
<path d="M33.8726 16.5225C33.8726 10.2209 27.2374 5.11219 19.0505 5.1084V27.9365C27.2374 27.9327 33.8726 22.8239 33.8726 16.5225Z" fill="#A65D4E"/>
<path d="M28.2163 16.7162C28.2163 21.4366 25.1753 25.2633 19.0417 25.2633C14.2388 25.2633 10.148 22.9168 8.59914 19.6322C8.17001 18.7223 8.62346 17.7569 8.62346 16.7329C8.62346 15.7682 8.14368 14.9991 8.52646 14.4124C10.0168 12.1286 14.1618 12.3577 19.0417 12.3577C25.1753 12.3577 28.2163 11.9958 28.2163 16.7162Z" fill="#F2F6FC"/>
<path d="M29.6516 16.7162C29.6516 15.7457 29.9371 14.9901 29.5498 14.402C28.0546 12.1307 23.9191 12.3574 19.0505 12.3577V25.2632C23.8535 25.2603 27.9429 22.9109 29.488 19.6241C29.9145 18.7164 29.6516 17.7372 29.6516 16.7162Z" fill="#DCE1EB"/>
<path d="M15.8914 17.0104C15.8914 15.5649 14.7196 14.3931 13.2742 14.3931H8.53914C8.14833 14.9825 7.93604 15.7407 7.93604 16.7159C7.93604 17.7384 8.16938 18.7188 8.59716 19.6276H13.2742C14.7196 19.6276 15.8914 18.4558 15.8914 17.0104Z" fill="#707789"/>
<path d="M22.1924 17.01C22.1924 18.4555 23.3642 19.6273 24.8096 19.6273H29.4866C29.9144 18.7186 30.1477 17.7381 30.1477 16.7157C30.1477 15.7404 29.9355 14.9822 29.5447 14.3928H24.8097C23.3642 14.3927 22.1924 15.5645 22.1924 17.01Z" fill="#555A66"/>
<path d="M14.7987 16.2417C14.7987 17.2173 14.0079 18.008 13.0323 18.008C12.0568 18.008 11.266 17.2173 11.266 16.2417H14.7987Z" fill="#333940"/>
<path d="M26.8182 16.2415C26.8182 17.217 26.0275 18.0078 25.0519 18.0078C24.0764 18.0078 23.2856 17.217 23.2856 16.2415H26.8182Z" fill="#0A0B0C"/>
<path d="M19.0418 19.4068C20.3233 19.4068 21.3622 18.8112 21.3622 18.0766C21.3622 17.3419 20.3233 16.7463 19.0418 16.7463C17.7603 16.7463 16.7214 17.3419 16.7214 18.0766C16.7214 18.8112 17.7603 19.4068 19.0418 19.4068Z" fill="#555A66"/>
<path d="M21.3619 18.0771C21.3619 17.3442 20.3278 16.7498 19.0505 16.7471V19.4072C20.3278 19.4044 21.3619 18.81 21.3619 18.0771Z" fill="#333940"/>
</g>
<defs>
<clipPath id="clip0_150_5462">
<rect width="38.0848" height="38.0848" fill="white"/>
</clipPath>
</defs>
</svg>
